<mxfile host="app.diagrams.net" modified="2020-10-27T14:00:02.165Z" agent="5.0 (Windows NT 6.1; Win64; x64) AppleWebKit/537.36 (KHTML, like Gecko) Chrome/86.0.4240.111 Safari/537.36" etag="IbSdZDeUVxE748Q9M2Ud" version="13.8.4" type="github">
  <diagram id="prtHgNgQTEPvFCAcTncT" name="Page-1">
    <mxGraphModel dx="868" dy="482" grid="1" gridSize="10" guides="1" tooltips="1" connect="1" arrows="1" fold="1" page="1" pageScale="1" pageWidth="827" pageHeight="1169" math="0" shadow="0">
      <root>
        <mxCell id="0" />
        <mxCell id="1" parent="0" />
        <mxCell id="eGmmL2NGkwLFqaaugJux-3" value="Đăng ký nhập ngũ" style="edgeStyle=orthogonalEdgeStyle;rounded=0;orthogonalLoop=1;jettySize=auto;html=1;" edge="1" parent="1" source="eGmmL2NGkwLFqaaugJux-1" target="eGmmL2NGkwLFqaaugJux-2">
          <mxGeometry relative="1" as="geometry" />
        </mxCell>
        <mxCell id="eGmmL2NGkwLFqaaugJux-1" value="Công dân 17" style="rounded=1;whiteSpace=wrap;html=1;" vertex="1" parent="1">
          <mxGeometry x="30" y="400" width="120" height="60" as="geometry" />
        </mxCell>
        <mxCell id="eGmmL2NGkwLFqaaugJux-5" value="Chọn đợt tuyển quân" style="edgeStyle=orthogonalEdgeStyle;rounded=0;orthogonalLoop=1;jettySize=auto;html=1;" edge="1" parent="1" source="eGmmL2NGkwLFqaaugJux-2" target="eGmmL2NGkwLFqaaugJux-4">
          <mxGeometry relative="1" as="geometry" />
        </mxCell>
        <mxCell id="eGmmL2NGkwLFqaaugJux-2" value="Công dân SSNN" style="whiteSpace=wrap;html=1;rounded=1;" vertex="1" parent="1">
          <mxGeometry x="294" y="400" width="120" height="60" as="geometry" />
        </mxCell>
        <mxCell id="eGmmL2NGkwLFqaaugJux-7" value="Xét đạt" style="edgeStyle=orthogonalEdgeStyle;rounded=0;orthogonalLoop=1;jettySize=auto;html=1;" edge="1" parent="1" source="eGmmL2NGkwLFqaaugJux-4" target="eGmmL2NGkwLFqaaugJux-6">
          <mxGeometry relative="1" as="geometry" />
        </mxCell>
        <mxCell id="eGmmL2NGkwLFqaaugJux-4" value="Xét duyệt cấp xã" style="whiteSpace=wrap;html=1;rounded=1;" vertex="1" parent="1">
          <mxGeometry x="550" y="400" width="120" height="60" as="geometry" />
        </mxCell>
        <mxCell id="eGmmL2NGkwLFqaaugJux-9" value="Xét đạt" style="edgeStyle=orthogonalEdgeStyle;rounded=0;orthogonalLoop=1;jettySize=auto;html=1;" edge="1" parent="1" source="eGmmL2NGkwLFqaaugJux-6" target="eGmmL2NGkwLFqaaugJux-8">
          <mxGeometry relative="1" as="geometry" />
        </mxCell>
        <mxCell id="eGmmL2NGkwLFqaaugJux-6" value="Xét duyệt cấp huyện" style="whiteSpace=wrap;html=1;rounded=1;" vertex="1" parent="1">
          <mxGeometry x="550" y="540" width="120" height="60" as="geometry" />
        </mxCell>
        <mxCell id="eGmmL2NGkwLFqaaugJux-8" value="Nhập ngũ&lt;br&gt;(DS Nhập ngũ" style="whiteSpace=wrap;html=1;rounded=1;" vertex="1" parent="1">
          <mxGeometry x="350" y="540" width="120" height="60" as="geometry" />
        </mxCell>
      </root>
    </mxGraphModel>
  </diagram>
</mxfile>
